<svg width="329" height="110" viewBox="0 0 329 110" fill="none" xmlns="http://www.w3.org/2000/svg">
<path fill-rule="evenodd" clip-rule="evenodd" d="M4.75658 32.3803C12.3403 16.0343 27.804 3.84682 45.1105 0.57477C47.7773 0.0705931 51.4429 -0.0901534 57.1449 0.0466072C67.1459 0.286959 72.9233 1.60098 80.7786 5.4216C101.79 15.6409 114.188 37.2562 112.18 60.1692C110.883 74.971 102.64 89.511 90.198 98.9465C85.4957 102.512 76.5894 106.731 70.4686 108.293C61.0534 110.695 49.2911 110.552 40.2341 107.927C19.4219 101.893 3.48827 83.9451 0.485313 63.1529C-0.924952 53.3883 0.810202 40.8855 4.75658 32.3803ZM120.945 54.7687C120.945 38.1155 121.099 24.3374 121.287 24.1507C121.474 23.9634 125.154 23.8103 129.462 23.8103H137.296L139.601 31.0821C140.868 35.0813 144.111 45.4726 146.806 54.1732C149.502 62.8738 151.839 70.337 151.999 70.758C152.158 71.179 154.116 65.5529 156.35 58.2556C158.584 50.9583 161.944 40.2384 163.818 34.4337L167.224 23.8797L175.216 23.9726L183.208 24.0654V54.6835V85.3015L177.76 85.446C172.97 85.5725 172.271 85.4827 171.969 84.6994C171.781 84.209 171.695 75.0276 171.78 64.296C171.865 53.5639 171.797 44.9439 171.629 45.1409C171.462 45.3373 168.398 54.3967 164.821 65.2722L158.317 85.0464H152.297H146.276L139.676 65.1447C136.045 54.1987 132.94 45.2429 132.775 45.2429C132.61 45.2424 132.54 54.1982 132.62 65.1447L132.764 85.0464H126.855H120.945V54.7687ZM77.1305 41.4157L82.3831 33.6336C85.2718 29.3537 87.4564 25.8515 87.237 25.8515C87.0177 25.8515 85.2303 26.62 83.2655 27.559C78.2692 29.9472 72.2894 34.8017 70.7238 37.7405C69.1332 40.7263 69.5467 41.1988 73.8595 41.3223L77.1305 41.4157ZM63.5506 37.2817C63.5506 36.4025 63.136 35.3319 62.6133 34.8609C61.7765 34.1066 59.6226 34.0163 42.4694 34.0163C21.5793 34.0163 21.4015 34.0398 21.4015 36.823C21.4015 39.5546 21.8678 39.6291 38.9227 39.6342L54.5827 39.6388L38.0561 55.8404C20.6426 72.9109 20.1936 73.4784 22.4669 75.5267C23.3186 76.2942 26.4204 76.3713 56.4654 76.3713C87.8438 76.3713 89.5697 76.3238 90.3748 75.4379C91.515 74.1831 91.4443 72.5093 90.198 71.2683C89.2448 70.3191 88.4813 70.2467 79.3084 70.2365L79.0124 70.2361C71.8715 70.228 69.5412 70.2254 68.0349 69.11C67.3052 68.5697 66.7688 67.7683 65.9726 66.5787L65.9042 66.4765C65.8304 66.3663 65.7586 66.2596 65.6891 66.1564C64.988 65.1157 64.5257 64.4294 64.6936 63.9768C65.0188 63.1003 67.7084 63.1011 75.6075 63.1032L76.8625 63.1034H89.1495L89.9976 61.8144C91.865 58.9761 89.3678 51.9896 85.1324 48.2011C82.0131 45.4118 78.6802 44.2167 74.0281 44.2198C69.7779 44.2228 66.4141 45.6287 63.322 48.6941C59.9624 52.0248 58.7351 55.0427 58.7069 60.0416C58.6859 63.7173 58.8929 64.8272 60.0633 67.3134L61.4439 70.2477H46.7427H32.041L47.7958 54.5528C61.6591 40.7426 63.5506 38.6687 63.5506 37.2817ZM191.304 52.3922C193.699 47.5051 199.427 43.0394 205.404 41.4004C208.79 40.4716 214.557 40.5048 217.833 41.4718C221.849 42.6577 224.272 44.0065 227.074 46.6161C231.96 51.1675 234.197 56.3777 234.197 63.2106V66.6756H217.03C215.97 66.6756 214.973 66.6749 214.035 66.6743C203.418 66.6672 200.293 66.6651 199.915 67.6827C199.758 68.1073 200.079 68.7095 200.533 69.5629C200.63 69.7439 200.732 69.9362 200.838 70.1405C204.231 76.7295 213.654 78.7396 219.928 74.2132L222.134 72.6226L226.706 73.1972C229.221 73.5136 231.508 74.0004 231.789 74.28C232.434 74.9225 231.238 76.7928 228.329 79.6903C224.037 83.964 218.608 86.0721 211.926 86.0609C194 86.0307 183.346 68.6356 191.304 52.3922ZM252.359 43.9549C253.329 43.2181 255.232 42.1837 256.587 41.6565C259.986 40.3338 265.61 40.3399 269.18 41.6698C272.618 42.9512 274.758 44.5142 276.959 47.353C280.018 51.2997 280.317 53.3159 280.317 70.0119V84.8994L276.305 85.2326C274.099 85.4158 271.562 85.4204 270.668 85.2423L269.043 84.9188V70.6738C269.043 57.4126 268.972 56.2899 268.013 54.4186C264.738 48.0256 253.019 49.0778 251.105 55.9368C250.828 56.9314 250.6 63.8883 250.598 71.3958L250.595 85.0464H244.958H239.321V63.4183C239.321 43.2466 239.382 41.7744 240.218 41.5621C240.711 41.4366 243.248 41.4376 245.855 41.5647L250.595 41.7958V43.5452V45.295L252.359 43.9549ZM287.937 41.7504L289.124 41.5611C290.294 41.3738 291.299 41.3753 296.587 41.5713L299.278 41.6708V55.5959C299.278 69.0235 299.319 69.6021 300.431 71.7939C303.699 78.2364 312.743 78.5156 316.417 72.2873C317.401 70.6202 317.48 69.5526 317.627 56.0868L317.785 41.6708H323.392H329V63.3586V85.0464H323.619H318.239V83.4364C318.239 81.9228 318.184 81.8759 317.323 82.6515C315.031 84.7172 311.445 85.7736 306.708 85.7787C304.172 85.7817 301.138 85.5 299.966 85.153C295.153 83.7278 290.536 79.2295 288.95 74.4204C288.543 73.1844 288.264 67.2879 288.134 57.1472L287.937 41.7504ZM65.731 54.8498C67.0685 52.6698 69.1424 50.9363 71.123 50.3418C74.7399 49.2569 78.6422 50.1444 81.4797 52.6969C82.5635 53.6721 83.6883 55.1494 83.9789 55.9802L84.5077 57.4901H74.5416C69.0604 57.4901 64.5765 57.3182 64.578 57.1074C64.5796 56.8967 65.0982 55.8812 65.731 54.8498ZM222.923 58.4852C222.923 55.8133 219.354 51.8676 215.81 50.623C212.001 49.2845 207.792 49.8474 204.23 52.1713C202.872 53.0577 199.876 57.6728 199.867 58.8935C199.863 59.3849 202.508 59.5313 211.393 59.5313C222.674 59.5313 222.923 59.5089 222.923 58.4852Z" fill="white"/>
</svg>
